<svg xmlns="http://www.w3.org/2000/svg" width="960" height="540" viewBox="0 0 960 540" role="img" aria-label="水调歌头 封面">
  <defs>
    <linearGradient id="sky" x1="0" x2="1" y1="0" y2="1">
      <stop offset="0%" stop-color="#17223c" />
      <stop offset="48%" stop-color="#2f4d68" />
      <stop offset="100%" stop-color="#d1c7a3" />
    </linearGradient>
    <radialGradient id="moon" cx="50%" cy="50%" r="50%">
      <stop offset="0%" stop-color="#fffdf2" />
      <stop offset="60%" stop-color="#f5ddb1" />
      <stop offset="100%" stop-color="#f5ddb1" stop-opacity="0" />
    </radialGradient>
    <filter id="softGlow" x="-60%" y="-60%" width="220%" height="220%">
      <feGaussianBlur stdDeviation="10" result="blur" />
      <feMerge>
        <feMergeNode in="blur" />
        <feMergeNode in="SourceGraphic" />
      </feMerge>
    </filter>
    <style>
      text { font-family: "Noto Serif SC", "Songti SC", "STSong", serif; }
      .source { font-size: 58px; font-weight: 700; letter-spacing: 0; }
      .meta { font-size: 24px; font-weight: 600; letter-spacing: 0; }
      .line { font-size: 28px; font-weight: 600; letter-spacing: 0; }
      .world { font-size: 20px; font-weight: 600; letter-spacing: 0; }
      .motif { font-size: 25px; font-weight: 700; letter-spacing: 0; }
    </style>
  </defs>
  <rect width="960" height="540" fill="url(#sky)" />
  <rect width="960" height="540" fill="#10243f" opacity="0.22" />
  <circle cx="254" cy="128" r="96" fill="url(#moon)" opacity="0.92" />
  <circle cx="501" cy="177" r="2.6" fill="#fff7d8" opacity="0.25" />
<circle cx="574" cy="44" r="1.2" fill="#fff7d8" opacity="0.37" />
<circle cx="647" cy="85" r="1.9" fill="#fff7d8" opacity="0.49" />
<circle cx="720" cy="126" r="2.6" fill="#fff7d8" opacity="0.61" />
<circle cx="793" cy="167" r="1.2" fill="#fff7d8" opacity="0.73" />
<circle cx="866" cy="34" r="1.9" fill="#fff7d8" opacity="0.25" />
<circle cx="87" cy="75" r="2.6" fill="#fff7d8" opacity="0.37" />
<circle cx="160" cy="116" r="1.2" fill="#fff7d8" opacity="0.49" />
<circle cx="233" cy="157" r="1.9" fill="#fff7d8" opacity="0.61" />
<circle cx="306" cy="198" r="2.6" fill="#fff7d8" opacity="0.73" />
<circle cx="379" cy="65" r="1.2" fill="#fff7d8" opacity="0.25" />
<circle cx="452" cy="106" r="1.9" fill="#fff7d8" opacity="0.37" />
<circle cx="525" cy="147" r="2.6" fill="#fff7d8" opacity="0.49" />
<circle cx="598" cy="188" r="1.2" fill="#fff7d8" opacity="0.61" />
<circle cx="671" cy="55" r="1.9" fill="#fff7d8" opacity="0.73" />
<circle cx="744" cy="96" r="2.6" fill="#fff7d8" opacity="0.25" />
<circle cx="817" cy="137" r="1.2" fill="#fff7d8" opacity="0.37" />
<circle cx="890" cy="178" r="1.9" fill="#fff7d8" opacity="0.49" />
<circle cx="111" cy="45" r="2.6" fill="#fff7d8" opacity="0.61" />
<circle cx="184" cy="86" r="1.2" fill="#fff7d8" opacity="0.73" />
<circle cx="257" cy="127" r="1.9" fill="#fff7d8" opacity="0.25" />
<circle cx="330" cy="168" r="2.6" fill="#fff7d8" opacity="0.37" />
  <path d="M0 410 L0 324 C68 292 94 260 142 286 C194 236 234 254 292 312 C360 238 420 238 494 322 C560 272 610 286 660 330 C730 260 806 246 960 330 L960 540 L0 540 Z" fill="#1f3443" opacity="0.72" />
  <path d="M40 364 C178 356 262 396 408 384 C540 304 626 422 916 326" fill="none" stroke="#b9d8e6" stroke-width="8" opacity="0.62" stroke-linecap="round" />
  <path d="M40 382 C178 338 262 414 408 366 C540 322 626 404 916 344" fill="none" stroke="#f4dc9a" stroke-width="3" opacity="0.28" stroke-linecap="round" />
  <path d="M42 430 C174 390 254 460 382 416 C500 376 636 452 918 388" fill="none" stroke="#f5c46f" stroke-width="4" opacity="0.56" stroke-linecap="round" />
  
        <g transform="translate(156 318)">
          <circle r="62" fill="#eff4ff" opacity="0.95" filter="url(#softGlow)" />
          <circle r="52" fill="none" stroke="#f4dc9a" stroke-width="2" opacity="0.42" />
          <text text-anchor="middle" dominant-baseline="central" class="motif" fill="#fff9e9">明月</text>
        </g>

        <g transform="translate(480 286)">
          <circle r="57" fill="#eff4ff" opacity="0.82" filter="url(#softGlow)" />
          <circle r="48" fill="none" stroke="#f4dc9a" stroke-width="2" opacity="0.42" />
          <text text-anchor="middle" dominant-baseline="central" class="motif" fill="#fff9e9">酒盏</text>
        </g>

        <g transform="translate(804 330)">
          <circle r="52" fill="#eff4ff" opacity="0.74" filter="url(#softGlow)" />
          <circle r="44" fill="none" stroke="#f4dc9a" stroke-width="2" opacity="0.42" />
          <text text-anchor="middle" dominant-baseline="central" class="motif" fill="#fff9e9">婵娟</text>
        </g>
  <g transform="translate(58 62)">
    <text class="meta" fill="#e8d8af">苏轼 · 中秋共月梦境</text>
    <text y="76" class="source" fill="#fff9e9">水调歌头</text>
    <text y="130" class="line" fill="#fff9e9">但愿人长久，千里共婵娟。</text>
  </g>
  <g transform="translate(58 466)">
    <rect width="330" height="44" rx="22" fill="#111a26" opacity="0.78" />
    <text x="24" y="29" class="world" fill="#fff9e9">诗境热点 · 明月 · 酒盏 · 婵娟</text>
  </g>
</svg>
