<svg xmlns="http://www.w3.org/2000/svg" width="960" height="540" viewBox="0 0 960 540" role="img" aria-label="春晓 封面">
  <defs>
    <linearGradient id="sky" x1="0" x2="1" y1="0" y2="1">
      <stop offset="0%" stop-color="#3a5d54" />
      <stop offset="48%" stop-color="#88a970" />
      <stop offset="100%" stop-color="#f1d8a8" />
    </linearGradient>
    <radialGradient id="moon" cx="50%" cy="50%" r="50%">
      <stop offset="0%" stop-color="#fffdf2" />
      <stop offset="60%" stop-color="#fff6c4" />
      <stop offset="100%" stop-color="#fff6c4" stop-opacity="0" />
    </radialGradient>
    <filter id="softGlow" x="-60%" y="-60%" width="220%" height="220%">
      <feGaussianBlur stdDeviation="10" result="blur" />
      <feMerge>
        <feMergeNode in="blur" />
        <feMergeNode in="SourceGraphic" />
      </feMerge>
    </filter>
    <style>
      text { font-family: "Noto Serif SC", "Songti SC", "STSong", serif; }
      .source { font-size: 58px; font-weight: 700; letter-spacing: 0; }
      .meta { font-size: 24px; font-weight: 600; letter-spacing: 0; }
      .line { font-size: 28px; font-weight: 600; letter-spacing: 0; }
      .world { font-size: 20px; font-weight: 600; letter-spacing: 0; }
      .motif { font-size: 25px; font-weight: 700; letter-spacing: 0; }
    </style>
  </defs>
  <rect width="960" height="540" fill="url(#sky)" />
  <rect width="960" height="540" fill="#d7e6bf" opacity="0.22" />
  <circle cx="212" cy="92" r="96" fill="url(#moon)" opacity="0.92" />
  <circle cx="724" cy="32" r="1.2" fill="#fff7d8" opacity="0.61" />
<circle cx="797" cy="73" r="1.9" fill="#fff7d8" opacity="0.73" />
<circle cx="870" cy="114" r="2.6" fill="#fff7d8" opacity="0.25" />
<circle cx="91" cy="155" r="1.2" fill="#fff7d8" opacity="0.37" />
<circle cx="164" cy="196" r="1.9" fill="#fff7d8" opacity="0.49" />
<circle cx="237" cy="63" r="2.6" fill="#fff7d8" opacity="0.61" />
<circle cx="310" cy="104" r="1.2" fill="#fff7d8" opacity="0.73" />
<circle cx="383" cy="145" r="1.9" fill="#fff7d8" opacity="0.25" />
<circle cx="456" cy="186" r="2.6" fill="#fff7d8" opacity="0.37" />
<circle cx="529" cy="53" r="1.2" fill="#fff7d8" opacity="0.49" />
<circle cx="602" cy="94" r="1.9" fill="#fff7d8" opacity="0.61" />
<circle cx="675" cy="135" r="2.6" fill="#fff7d8" opacity="0.73" />
<circle cx="748" cy="176" r="1.2" fill="#fff7d8" opacity="0.25" />
<circle cx="821" cy="43" r="1.9" fill="#fff7d8" opacity="0.37" />
<circle cx="894" cy="84" r="2.6" fill="#fff7d8" opacity="0.49" />
<circle cx="115" cy="125" r="1.2" fill="#fff7d8" opacity="0.61" />
<circle cx="188" cy="166" r="1.9" fill="#fff7d8" opacity="0.73" />
<circle cx="261" cy="33" r="2.6" fill="#fff7d8" opacity="0.25" />
<circle cx="334" cy="74" r="1.2" fill="#fff7d8" opacity="0.37" />
<circle cx="407" cy="115" r="1.9" fill="#fff7d8" opacity="0.49" />
<circle cx="480" cy="156" r="2.6" fill="#fff7d8" opacity="0.61" />
<circle cx="553" cy="197" r="1.2" fill="#fff7d8" opacity="0.73" />
  <path d="M0 410 L0 324 C68 292 94 260 142 286 C194 236 234 254 292 312 C360 238 420 238 494 322 C560 272 610 286 660 330 C730 260 806 246 960 330 L960 540 L0 540 Z" fill="#375d4e" opacity="0.72" />
  <path d="M40 370 C178 350 262 402 408 378 C540 310 626 416 916 332" fill="none" stroke="#d9eab8" stroke-width="8" opacity="0.62" stroke-linecap="round" />
  <path d="M40 364 C178 356 262 396 408 384 C540 304 626 422 916 326" fill="none" stroke="#2b5a4b" stroke-width="3" opacity="0.28" stroke-linecap="round" />
  <path d="M42 430 C174 390 254 460 382 416 C500 376 636 452 918 388" fill="none" stroke="#ffd27d" stroke-width="4" opacity="0.56" stroke-linecap="round" />
  
        <g transform="translate(156 318)">
          <circle r="62" fill="#f6f5c3" opacity="0.95" filter="url(#softGlow)" />
          <circle r="52" fill="none" stroke="#2b5a4b" stroke-width="2" opacity="0.42" />
          <text text-anchor="middle" dominant-baseline="central" class="motif" fill="#fff9e9">啼鸟</text>
        </g>

        <g transform="translate(480 286)">
          <circle r="57" fill="#f6f5c3" opacity="0.82" filter="url(#softGlow)" />
          <circle r="48" fill="none" stroke="#2b5a4b" stroke-width="2" opacity="0.42" />
          <text text-anchor="middle" dominant-baseline="central" class="motif" fill="#fff9e9">风雨</text>
        </g>

        <g transform="translate(804 330)">
          <circle r="52" fill="#f6f5c3" opacity="0.74" filter="url(#softGlow)" />
          <circle r="44" fill="none" stroke="#2b5a4b" stroke-width="2" opacity="0.42" />
          <text text-anchor="middle" dominant-baseline="central" class="motif" fill="#fff9e9">落花</text>
        </g>
  <g transform="translate(58 62)">
    <text class="meta" fill="#f4e6bd">孟浩然 · 春晓鸟鸣梦境</text>
    <text y="76" class="source" fill="#fff9e9">春晓</text>
    <text y="130" class="line" fill="#fff9e9">夜来风雨声，花落知多少。</text>
  </g>
  <g transform="translate(58 466)">
    <rect width="330" height="44" rx="22" fill="#24392f" opacity="0.78" />
    <text x="24" y="29" class="world" fill="#fff9e9">诗境热点 · 啼鸟 · 风雨 · 落花</text>
  </g>
</svg>
