<svg xmlns="http://www.w3.org/2000/svg" width="960" height="540" viewBox="0 0 960 540" role="img" aria-label="送元二使安西 封面">
  <defs>
    <linearGradient id="sky" x1="0" x2="1" y1="0" y2="1">
      <stop offset="0%" stop-color="#3a5d54" />
      <stop offset="48%" stop-color="#88a970" />
      <stop offset="100%" stop-color="#f1d8a8" />
    </linearGradient>
    <radialGradient id="moon" cx="50%" cy="50%" r="50%">
      <stop offset="0%" stop-color="#fffdf2" />
      <stop offset="60%" stop-color="#fff6c4" />
      <stop offset="100%" stop-color="#fff6c4" stop-opacity="0" />
    </radialGradient>
    <filter id="softGlow" x="-60%" y="-60%" width="220%" height="220%">
      <feGaussianBlur stdDeviation="10" result="blur" />
      <feMerge>
        <feMergeNode in="blur" />
        <feMergeNode in="SourceGraphic" />
      </feMerge>
    </filter>
    <style>
      text { font-family: "Noto Serif SC", "Songti SC", "STSong", serif; }
      .source { font-size: 58px; font-weight: 700; letter-spacing: 0; }
      .meta { font-size: 24px; font-weight: 600; letter-spacing: 0; }
      .line { font-size: 28px; font-weight: 600; letter-spacing: 0; }
      .world { font-size: 20px; font-weight: 600; letter-spacing: 0; }
      .motif { font-size: 25px; font-weight: 700; letter-spacing: 0; }
    </style>
  </defs>
  <rect width="960" height="540" fill="url(#sky)" />
  <rect width="960" height="540" fill="#d7e6bf" opacity="0.22" />
  <circle cx="128" cy="92" r="96" fill="url(#moon)" opacity="0.92" />
  <circle cx="94" cy="32" r="1.2" fill="#fff7d8" opacity="0.73" />
<circle cx="167" cy="73" r="1.9" fill="#fff7d8" opacity="0.25" />
<circle cx="240" cy="114" r="2.6" fill="#fff7d8" opacity="0.37" />
<circle cx="313" cy="155" r="1.2" fill="#fff7d8" opacity="0.49" />
<circle cx="386" cy="196" r="1.9" fill="#fff7d8" opacity="0.61" />
<circle cx="459" cy="63" r="2.6" fill="#fff7d8" opacity="0.73" />
<circle cx="532" cy="104" r="1.2" fill="#fff7d8" opacity="0.25" />
<circle cx="605" cy="145" r="1.9" fill="#fff7d8" opacity="0.37" />
<circle cx="678" cy="186" r="2.6" fill="#fff7d8" opacity="0.49" />
<circle cx="751" cy="53" r="1.2" fill="#fff7d8" opacity="0.61" />
<circle cx="824" cy="94" r="1.9" fill="#fff7d8" opacity="0.73" />
<circle cx="897" cy="135" r="2.6" fill="#fff7d8" opacity="0.25" />
<circle cx="118" cy="176" r="1.2" fill="#fff7d8" opacity="0.37" />
<circle cx="191" cy="43" r="1.9" fill="#fff7d8" opacity="0.49" />
<circle cx="264" cy="84" r="2.6" fill="#fff7d8" opacity="0.61" />
<circle cx="337" cy="125" r="1.2" fill="#fff7d8" opacity="0.73" />
<circle cx="410" cy="166" r="1.9" fill="#fff7d8" opacity="0.25" />
<circle cx="483" cy="33" r="2.6" fill="#fff7d8" opacity="0.37" />
<circle cx="556" cy="74" r="1.2" fill="#fff7d8" opacity="0.49" />
<circle cx="629" cy="115" r="1.9" fill="#fff7d8" opacity="0.61" />
<circle cx="702" cy="156" r="2.6" fill="#fff7d8" opacity="0.73" />
<circle cx="775" cy="197" r="1.2" fill="#fff7d8" opacity="0.25" />
  <path d="M0 410 L0 324 C68 292 94 260 142 286 C194 236 234 254 292 312 C360 238 420 238 494 322 C560 272 610 286 660 330 C730 260 806 246 960 330 L960 540 L0 540 Z" fill="#375d4e" opacity="0.72" />
  <path d="M40 382 C178 338 262 414 408 366 C540 322 626 404 916 344" fill="none" stroke="#d9eab8" stroke-width="8" opacity="0.62" stroke-linecap="round" />
  <path d="M40 376 C178 344 262 408 408 372 C540 316 626 410 916 338" fill="none" stroke="#2b5a4b" stroke-width="3" opacity="0.28" stroke-linecap="round" />
  <path d="M42 430 C174 390 254 460 382 416 C500 376 636 452 918 388" fill="none" stroke="#ffd27d" stroke-width="4" opacity="0.56" stroke-linecap="round" />
  
        <g transform="translate(156 318)">
          <circle r="62" fill="#f6f5c3" opacity="0.95" filter="url(#softGlow)" />
          <circle r="52" fill="none" stroke="#2b5a4b" stroke-width="2" opacity="0.42" />
          <text text-anchor="middle" dominant-baseline="central" class="motif" fill="#fff9e9">朝雨</text>
        </g>

        <g transform="translate(480 286)">
          <circle r="57" fill="#f6f5c3" opacity="0.82" filter="url(#softGlow)" />
          <circle r="48" fill="none" stroke="#2b5a4b" stroke-width="2" opacity="0.42" />
          <text text-anchor="middle" dominant-baseline="central" class="motif" fill="#fff9e9">柳色</text>
        </g>

        <g transform="translate(804 330)">
          <circle r="52" fill="#f6f5c3" opacity="0.74" filter="url(#softGlow)" />
          <circle r="44" fill="none" stroke="#2b5a4b" stroke-width="2" opacity="0.42" />
          <text text-anchor="middle" dominant-baseline="central" class="motif" fill="#fff9e9">酒杯</text>
        </g>
  <g transform="translate(58 62)">
    <text class="meta" fill="#f4e6bd">王维 · 渭城朝雨梦境</text>
    <text y="76" class="source" fill="#fff9e9">送元二使安西</text>
    <text y="130" class="line" fill="#fff9e9">劝君更尽一杯酒，西出阳关无故人。</text>
  </g>
  <g transform="translate(58 466)">
    <rect width="330" height="44" rx="22" fill="#24392f" opacity="0.78" />
    <text x="24" y="29" class="world" fill="#fff9e9">诗境热点 · 朝雨 · 柳色 · 酒杯</text>
  </g>
</svg>
